<svg width="501" height="511" viewBox="0 0 501 511" fill="none" xmlns="http://www.w3.org/2000/svg">
<path d="M352.82 367.226C335.367 385.943 320.423 407.067 308.501 430.097L275.084 494.648C263.606 516.82 231.791 516.343 220.981 493.836L193.164 435.925C181.18 410.976 165.697 388.112 147.333 367.945L251.019 264.052L352.82 367.226ZM234.006 246.81L130.274 350.751C109.489 331.526 85.7929 315.402 59.8742 303.072L17.2736 282.805C-5.7315 271.86 -5.76529 239.069 17.2169 228.076L63.5119 205.934C92.1358 192.243 118.055 173.914 140.324 151.865L234.006 246.81ZM362.511 152.337C385.187 175.076 411.727 193.941 441.127 207.928L483.727 228.195C506.732 239.139 506.765 271.932 483.782 282.924L437.489 305.066C412.808 316.87 390.139 332.126 370.086 350.239L268.129 246.907L362.511 152.337ZM225.914 16.3518C237.392 -5.81994 269.207 -5.34247 280.018 17.1633L307.836 75.0745C318.146 96.5389 331.046 116.461 346.143 134.449L251.116 229.665L156.803 134.081C170.591 117.862 182.591 100.042 192.499 80.9026L225.914 16.3518Z" fill="url(#paint0_linear_5_73)"/>
<defs>
<linearGradient id="paint0_linear_5_73" x1="-35.2539" y1="1.22539" x2="627.043" y2="112.444" gradientUnits="userSpaceOnUse">
<stop stop-color="#662CDD"/>
<stop offset="1" stop-color="#9163EF"/>
</linearGradient>
</defs>
</svg>
