<svg width="953" height="417" viewBox="0 0 953 417" fill="none" xmlns="http://www.w3.org/2000/svg">
<path d="M600.243 267.296L666.275 81.8623H716.931L624.214 321.569C615.47 343.882 607.178 362.124 599.339 376.295C591.499 390.466 582.604 400.718 572.654 407.05C562.704 413.683 549.739 417 533.759 417C529.236 417 524.713 416.547 520.19 415.643V372.225C524.713 373.129 529.236 373.581 533.759 373.581C540.392 373.581 545.82 371.923 550.041 368.606C554.262 365.591 558.182 360.314 561.8 352.776C565.418 345.238 569.64 334.836 574.464 321.569L472.701 81.8623H526.975L600.243 267.296ZM144.729 0C164.026 0 182.268 3.01554 199.454 9.0459C216.942 14.7747 232.471 23.971 246.039 36.6348C259.607 49.2985 270.16 65.5804 277.698 85.4805C285.538 105.079 289.457 128.749 289.457 156.488V165.533C289.457 194.479 285.538 219.204 277.698 239.707C270.16 259.909 259.607 276.492 246.039 289.457C232.471 302.121 216.942 311.469 199.454 317.499C182.268 323.529 164.026 326.544 144.729 326.544C125.431 326.544 107.039 323.529 89.5508 317.499C72.3642 311.469 56.9873 302.121 43.4189 289.457C29.8506 276.492 19.1461 259.909 11.3066 239.707C3.76869 219.204 0 194.479 0 165.533V156.488C0 128.749 3.76873 105.079 11.3066 85.4805C19.1461 65.5803 29.8506 49.2985 43.4189 36.6348C56.9872 23.9711 72.3643 14.7747 89.5508 9.0459C107.039 3.01556 125.431 1.8994e-05 144.729 0ZM438.709 76.8887C446.247 76.8887 451.825 77.19 455.443 77.793C459.363 78.396 462.077 78.9985 463.585 79.6016V124.829C458.459 123.322 453.785 122.267 449.563 121.664C445.342 120.76 440.217 120.307 434.187 120.307C421.221 120.307 410.518 123.322 402.075 129.353C393.633 135.081 387.451 142.619 383.531 151.966C379.612 161.011 377.651 170.811 377.651 181.364V321.57H327.901V81.8633H374.033V122.568C377.35 114.126 381.873 106.587 387.602 99.9541C393.632 93.0192 400.869 87.441 409.312 83.2197C418.055 78.9986 427.855 76.8887 438.709 76.8887ZM863.955 76.8887C893.202 76.8887 915.213 84.8783 929.987 100.858C944.762 116.537 952.149 139.604 952.149 170.058V321.57H902.398V181.364C902.398 161.163 898.178 145.936 889.735 135.685C881.293 125.433 867.423 120.307 848.126 120.307C834.256 120.307 822.949 123.322 814.205 129.353C805.763 135.081 799.43 142.619 795.209 151.966C791.289 161.011 789.33 170.811 789.33 181.364V321.57H739.579V81.8633H785.711V122.116C791.44 110.055 800.788 99.5016 813.753 90.4561C826.718 81.4108 843.452 76.8887 863.955 76.8887ZM144.729 47.9414C129.653 47.9414 115.331 51.5596 101.763 58.7959C88.4959 65.7308 77.6407 77.1885 69.1982 93.1689C61.0573 108.848 56.9873 129.955 56.9873 156.488V165.533C56.9873 193.574 61.0573 215.887 69.1982 232.471C77.6407 248.753 88.4959 260.512 101.763 267.748C115.331 274.984 129.653 278.603 144.729 278.603C159.804 278.603 173.976 274.984 187.243 267.748C200.51 260.512 211.364 248.752 219.807 232.471C228.249 215.887 232.471 193.574 232.471 165.533V156.488C232.471 129.955 228.249 108.848 219.807 93.1689C211.364 77.1887 200.51 65.7308 187.243 58.7959C173.976 51.5595 159.804 47.9414 144.729 47.9414Z" fill="url(#paint0_linear_5_72)"/>
<defs>
<linearGradient id="paint0_linear_5_72" x1="-67" y1="0.999976" x2="1055.5" y2="440" gradientUnits="userSpaceOnUse">
<stop stop-color="#662CDD"/>
<stop offset="1" stop-color="#9163EF"/>
</linearGradient>
</defs>
</svg>
