<svg width="600" height="600" viewBox="0 0 600 600" fill="none" xmlns="http://www.w3.org/2000/svg">
<rect width="600" height="600" fill="url(#paint0_linear_23_6)"/>
<path fill-rule="evenodd" clip-rule="evenodd" d="M383.44 392.156C369.122 407.51 356.863 424.839 347.083 443.732L319.668 496.688C310.252 514.877 284.152 514.485 275.284 496.022L252.464 448.513C242.633 428.046 229.931 409.29 214.866 392.746L299.925 307.516L383.44 392.156ZM285.969 293.371L200.871 378.64C183.819 362.868 164.38 349.642 143.118 339.526L108.17 322.9C89.2979 313.921 89.2705 287.02 108.125 278.002L146.102 259.837C169.584 248.606 190.847 233.57 209.116 215.482L285.969 293.371ZM391.39 215.869C409.992 234.523 431.765 249.999 455.883 261.473L490.83 278.1C509.702 287.079 509.73 313.98 490.876 322.998L452.899 341.162C432.652 350.846 414.055 363.36 397.604 378.219L313.962 293.451L391.39 215.869ZM279.332 104.312C288.748 86.1235 314.847 86.5153 323.715 104.978L346.536 152.486C354.994 170.095 365.577 186.437 377.961 201.195L300.005 279.306L222.635 200.893C233.947 187.588 243.79 172.969 251.918 157.267L279.332 104.312Z" fill="white"/>
<defs>
<linearGradient id="paint0_linear_23_6" x1="-42.2203" y1="1.43881" x2="750.074" y2="137.144" gradientUnits="userSpaceOnUse">
<stop stop-color="#662CDD"/>
<stop offset="1" stop-color="#9163EF"/>
</linearGradient>
</defs>
</svg>
