<svg width="600" height="600" viewBox="0 0 600 600" fill="none" xmlns="http://www.w3.org/2000/svg">
<rect width="600" height="600" fill="white"/>
<path d="M523 300C523 176.84 423.16 77 300 77C176.84 77 77 176.84 77 300C77 423.16 176.84 523 300 523C423.16 523 523 423.16 523 300ZM563 300C563 445.251 445.251 563 300 563C154.749 563 37 445.251 37 300C37 154.749 154.749 37 300 37C445.251 37 563 154.749 563 300Z" fill="url(#paint0_linear_23_2)"/>
<path d="M230.28 480.34L242.411 435.067C213.455 424.131 193.624 409.431 182.918 390.966C172.212 372.5 168.765 352.37 172.576 330.574L221.259 343.618C220.462 355.246 223.552 365.894 230.527 375.562C237.503 385.229 251.944 392.998 273.851 398.868C296.57 404.955 313.637 405.629 325.053 400.89C336.811 395.953 344.134 388.095 347.023 377.316C349.405 368.423 348.65 360.423 344.757 353.314C340.865 346.206 333.78 339.109 323.504 332.023C313.57 324.74 300.418 317.028 284.048 308.887C265.73 299.357 250.676 289.547 238.886 279.456C227.168 269.095 219.274 257.449 215.202 244.516C211.401 231.656 211.811 216.602 216.432 199.355C221.487 180.492 232.96 165.803 250.85 155.289C268.741 144.775 291.778 141.561 319.961 145.647L329.925 108.458L370.494 119.329L360.53 156.517C385.97 166.511 403.574 180.326 413.343 197.962C423.453 215.402 426.784 234.346 423.334 254.794L374.651 241.75C375.231 230.93 371.889 221.225 364.625 212.636C357.703 203.849 345.858 197.209 329.089 192.716C309.616 187.499 294.65 187.099 284.19 191.517C274.001 196.007 267.642 202.968 265.115 212.4C261.649 225.335 264.459 236.486 273.544 245.852C282.63 255.218 297.783 265.199 319.003 275.795C334.833 283.792 348.319 291.882 359.46 300.066C370.674 307.981 379.57 316.43 386.149 325.414C392.8 334.128 396.855 343.879 398.312 354.667C400.112 365.258 399.243 377.156 395.705 390.361C390.073 411.38 377.698 427.271 358.581 438.034C339.464 448.798 314.264 451.432 282.98 445.938L270.849 491.21L230.28 480.34Z" fill="url(#paint1_linear_23_2)"/>
<defs>
<linearGradient id="paint0_linear_23_2" x1="-0.0130958" y1="38.2614" x2="694.564" y2="157.229" gradientUnits="userSpaceOnUse">
<stop stop-color="#662CDD"/>
<stop offset="1" stop-color="#9163EF"/>
</linearGradient>
<linearGradient id="paint1_linear_23_2" x1="222.706" y1="80.6847" x2="514.555" y2="191.942" gradientUnits="userSpaceOnUse">
<stop stop-color="#662CDD"/>
<stop offset="1" stop-color="#9163EF"/>
</linearGradient>
</defs>
</svg>
